<svg width="30" height="29" viewBox="0 0 30 29" fill="none" xmlns="http://www.w3.org/2000/svg">
<mask id="path-1-inside-1_616_12" fill="white">
<path d="M26.9582 20.5566L26.5776 20.2259C26.5208 19.9355 26.3781 19.6659 26.1537 19.4814L23.9295 17.6508C23.7446 17.4984 23.5332 17.4253 23.3229 17.4215C21.375 15.8764 18.9421 14.9416 16.3265 14.7457V12.9895C16.3265 12.6613 16.9758 11.9312 17.4499 11.3989C17.803 11.0015 18.1685 10.5914 18.5101 10.129C19.266 9.10793 19.6823 7.83425 19.6823 6.54418C19.6823 2.56879 17.4532 0 14.0034 0C11.3953 0 9.21328 2.01447 8.57424 5.01286C8.46665 5.51931 8.73157 6.03143 9.16624 6.15741C9.602 6.28403 10.0405 5.97411 10.1486 5.46766C10.6043 3.32784 12.1538 1.88911 14.0034 1.88911C16.5433 1.88911 18.0603 3.62894 18.0603 6.54355C18.0603 7.38071 17.7835 8.21534 17.2829 8.89376C16.9893 9.28998 16.6514 9.66982 16.3243 10.0371C15.4917 10.9731 14.7051 11.8581 14.7051 12.9882V14.723C11.9132 14.8376 9.28735 15.7838 7.24805 17.4323C6.99449 17.3995 6.73174 17.4669 6.50737 17.6502L4.28209 19.4801C4.05989 19.6634 3.91932 19.928 3.85985 20.2127L3.15702 20.7916C0.0553595 23.3446 -0.216042 25.2715 0.102395 26.44C0.420292 27.6079 1.59727 29 5.39419 29H24.5469C28.3368 29 29.5398 27.5739 29.8815 26.3783C30.2221 25.184 29.9934 23.2023 26.9582 20.5566ZM28.3422 25.783C28.1671 26.3959 27.068 27.1109 24.5464 27.1109H5.39365C2.87859 27.1109 1.80325 26.4419 1.64755 25.8674C1.4913 25.2948 2.03789 24.0256 4.09233 22.3355L4.79894 21.7541C4.83517 21.7585 4.87085 21.768 4.90707 21.768C5.12225 21.768 5.34067 21.693 5.52989 21.538L7.75409 19.7075C7.97467 19.5261 8.1147 19.264 8.17471 18.9818C10.0821 17.4404 12.5972 16.5888 15.2706 16.5888C17.8798 16.5888 20.3224 17.3894 22.2368 18.8433C22.2741 19.1784 22.4255 19.4965 22.6807 19.7075L24.9048 21.538C25.0952 21.693 25.3125 21.768 25.5277 21.768C25.5606 21.768 25.5936 21.7579 25.6271 21.7547L25.9867 22.0684C28.0054 23.8303 28.5163 25.1695 28.3422 25.783Z"/>
</mask>
<path d="M26.9582 20.5566L26.5776 20.2259C26.5208 19.9355 26.3781 19.6659 26.1537 19.4814L23.9295 17.6508C23.7446 17.4984 23.5332 17.4253 23.3229 17.4215C21.375 15.8764 18.9421 14.9416 16.3265 14.7457V12.9895C16.3265 12.6613 16.9758 11.9312 17.4499 11.3989C17.803 11.0015 18.1685 10.5914 18.5101 10.129C19.266 9.10793 19.6823 7.83425 19.6823 6.54418C19.6823 2.56879 17.4532 0 14.0034 0C11.3953 0 9.21328 2.01447 8.57424 5.01286C8.46665 5.51931 8.73157 6.03143 9.16624 6.15741C9.602 6.28403 10.0405 5.97411 10.1486 5.46766C10.6043 3.32784 12.1538 1.88911 14.0034 1.88911C16.5433 1.88911 18.0603 3.62894 18.0603 6.54355C18.0603 7.38071 17.7835 8.21534 17.2829 8.89376C16.9893 9.28998 16.6514 9.66982 16.3243 10.0371C15.4917 10.9731 14.7051 11.8581 14.7051 12.9882V14.723C11.9132 14.8376 9.28735 15.7838 7.24805 17.4323C6.99449 17.3995 6.73174 17.4669 6.50737 17.6502L4.28209 19.4801C4.05989 19.6634 3.91932 19.928 3.85985 20.2127L3.15702 20.7916C0.0553595 23.3446 -0.216042 25.2715 0.102395 26.44C0.420292 27.6079 1.59727 29 5.39419 29H24.5469C28.3368 29 29.5398 27.5739 29.8815 26.3783C30.2221 25.184 29.9934 23.2023 26.9582 20.5566ZM28.3422 25.783C28.1671 26.3959 27.068 27.1109 24.5464 27.1109H5.39365C2.87859 27.1109 1.80325 26.4419 1.64755 25.8674C1.4913 25.2948 2.03789 24.0256 4.09233 22.3355L4.79894 21.7541C4.83517 21.7585 4.87085 21.768 4.90707 21.768C5.12225 21.768 5.34067 21.693 5.52989 21.538L7.75409 19.7075C7.97467 19.5261 8.1147 19.264 8.17471 18.9818C10.0821 17.4404 12.5972 16.5888 15.2706 16.5888C17.8798 16.5888 20.3224 17.3894 22.2368 18.8433C22.2741 19.1784 22.4255 19.4965 22.6807 19.7075L24.9048 21.538C25.0952 21.693 25.3125 21.768 25.5277 21.768C25.5606 21.768 25.5936 21.7579 25.6271 21.7547L25.9867 22.0684C28.0054 23.8303 28.5163 25.1695 28.3422 25.783Z" fill="black"/>
<path d="M26.9582 20.5566L28.9294 18.2952L28.9259 18.292L26.9582 20.5566ZM26.5776 20.2259L23.6333 20.8015L23.8312 21.8139L24.6099 22.4905L26.5776 20.2259ZM26.1537 19.4814L24.2473 21.7977L24.2479 21.7982L26.1537 19.4814ZM23.9295 17.6508L22.0211 19.9656L22.0231 19.9672L23.9295 17.6508ZM23.3229 17.4215L21.4585 19.7719L22.2539 20.4028L23.269 20.4211L23.3229 17.4215ZM16.3265 14.7457H13.3265V17.5294L16.1024 17.7373L16.3265 14.7457ZM17.4499 11.3989L19.6901 13.3944L19.6929 13.3912L17.4499 11.3989ZM18.5101 10.129L16.0989 8.34418L16.0975 8.34604L18.5101 10.129ZM8.57424 5.01286L5.64014 4.38752L5.63973 4.38947L8.57424 5.01286ZM9.16624 6.15741L10.0033 3.27656L10.0014 3.276L9.16624 6.15741ZM10.1486 5.46766L13.0825 6.09405L13.0828 6.09261L10.1486 5.46766ZM17.2829 8.89376L19.6933 10.6797L19.6968 10.6751L17.2829 8.89376ZM16.3243 10.0371L14.0841 8.04174L14.0827 8.04324L16.3243 10.0371ZM14.7051 14.723L14.8282 17.7205L17.7051 17.6023V14.723H14.7051ZM7.24805 17.4323L6.8637 20.4075L8.13618 20.5719L9.134 19.7653L7.24805 17.4323ZM6.50737 17.6502L4.6093 15.327L4.60191 15.333L6.50737 17.6502ZM4.28209 19.4801L2.37663 17.1629L2.37302 17.1659L4.28209 19.4801ZM3.85985 20.2127L5.76715 22.5283L6.58092 21.8581L6.79648 20.8261L3.85985 20.2127ZM3.15702 20.7916L5.06358 23.1078L5.06432 23.1072L3.15702 20.7916ZM0.102395 26.44L2.99707 25.6521L2.99684 25.6512L0.102395 26.44ZM29.8815 26.3783L32.766 27.2027L32.7664 27.2011L29.8815 26.3783ZM28.3422 25.783L31.2268 26.6074L31.2283 26.6019L28.3422 25.783ZM1.64755 25.8674L4.54308 25.0826L4.54173 25.0777L1.64755 25.8674ZM4.09233 22.3355L5.99822 24.6523L5.99845 24.6521L4.09233 22.3355ZM4.79894 21.7541L5.16146 18.7761L3.88544 18.6208L2.89282 19.4375L4.79894 21.7541ZM5.52989 21.538L7.43063 23.8591L7.43629 23.8544L5.52989 21.538ZM7.75409 19.7075L5.84847 17.3905L5.84769 17.3911L7.75409 19.7075ZM8.17471 18.9818L6.28909 16.6485L5.46162 17.3172L5.24032 18.3578L8.17471 18.9818ZM22.2368 18.8433L25.2184 18.5114L25.076 17.2324L24.0512 16.4541L22.2368 18.8433ZM22.6807 19.7075L20.7688 22.0194L20.7742 22.0239L22.6807 19.7075ZM24.9048 21.538L22.9984 23.8544L23.0045 23.8594L23.0106 23.8644L24.9048 21.538ZM25.6271 21.7547L27.5995 19.4942L26.6289 18.6474L25.3465 18.7679L25.6271 21.7547ZM25.9867 22.0684L27.9593 19.8082L27.959 19.8079L25.9867 22.0684ZM28.9259 18.292L28.5452 17.9613L24.6099 22.4905L24.9905 22.8212L28.9259 18.292ZM29.5219 19.6504C29.3555 18.7991 28.9107 17.8647 28.0596 17.1645L24.2479 21.7982C23.8455 21.4672 23.6862 21.072 23.6333 20.8015L29.5219 19.6504ZM28.0601 17.165L25.8359 15.3344L22.0231 19.9672L24.2473 21.7977L28.0601 17.165ZM25.8379 15.3361C25.1311 14.7533 24.2664 14.438 23.3768 14.422L23.269 20.4211C22.8001 20.4126 22.3582 20.2434 22.0211 19.9656L25.8379 15.3361ZM25.1873 15.0712C22.7464 13.135 19.7353 11.9926 16.5506 11.754L16.1024 17.7373C18.1489 17.8906 20.0036 18.6177 21.4585 19.7719L25.1873 15.0712ZM19.3265 14.7457V12.9895H13.3265V14.7457H19.3265ZM19.3265 12.9895C19.3265 13.2122 19.2994 13.3972 19.2715 13.5322C19.2432 13.6685 19.2089 13.7781 19.1812 13.8559C19.1279 14.0054 19.0754 14.1026 19.0579 14.1342C19.0371 14.1715 19.0272 14.1848 19.0372 14.1701C19.046 14.1571 19.0642 14.1315 19.0944 14.0919C19.1566 14.0105 19.2414 13.9072 19.3497 13.7811C19.4572 13.656 19.5695 13.5297 19.6901 13.3944L15.2098 9.40347C14.9895 9.65081 14.6293 10.0531 14.3264 10.4496C14.176 10.6465 13.9821 10.9158 13.8129 11.2205C13.7056 11.4135 13.3265 12.0939 13.3265 12.9895H19.3265ZM19.6929 13.3912C20.0314 13.01 20.4878 12.5007 20.9228 11.912L16.0975 8.34604C15.8491 8.68207 15.5745 8.99286 15.207 9.4067L19.6929 13.3912ZM20.9214 11.9139C22.0661 10.3674 22.6823 8.4658 22.6823 6.54418H16.6823C16.6823 7.20269 16.4658 7.84847 16.0989 8.34418L20.9214 11.9139ZM22.6823 6.54418C22.6823 4.01313 21.9698 1.62141 20.4023 -0.184899C18.7973 -2.03449 16.5238 -3 14.0034 -3V3C14.9328 3 15.4987 3.31889 15.8707 3.74754C16.2802 4.21948 16.6823 5.09984 16.6823 6.54418H22.6823ZM14.0034 -3C9.65801 -3 6.50168 0.34512 5.64014 4.38752L11.5083 5.63819C11.9249 3.68381 13.1326 3 14.0034 3V-3ZM5.63973 4.38947C5.2785 6.08986 6.07055 8.38365 8.33112 9.03883L10.0014 3.276C10.6966 3.47749 11.1235 3.9474 11.3315 4.34952C11.5405 4.75359 11.6002 5.20582 11.5088 5.63625L5.63973 4.38947ZM8.32919 9.03827C10.8423 9.76847 12.7047 7.86336 13.0825 6.09405L7.21471 4.84127C7.30651 4.4113 7.56766 3.93856 8.05397 3.59639C8.55914 3.24096 9.27538 3.06505 10.0033 3.27656L8.32919 9.03827ZM13.0828 6.09261C13.1962 5.55991 13.419 5.2374 13.5945 5.07453C13.7577 4.92298 13.8919 4.88911 14.0034 4.88911V-1.11089C10.4037 -1.11089 7.88946 1.67329 7.21441 4.8427L13.0828 6.09261ZM14.0034 4.88911C14.5479 4.88911 14.6828 5.04861 14.7229 5.09466C14.8099 5.19447 15.0603 5.57808 15.0603 6.54355H21.0603C21.0603 4.59441 20.5522 2.6508 19.2457 1.15204C17.8924 -0.40047 15.9988 -1.11089 14.0034 -1.11089V4.88911ZM15.0603 6.54355C15.0603 6.73201 14.9934 6.9438 14.869 7.11244L19.6968 10.6751C20.5736 9.48688 21.0603 8.0294 21.0603 6.54355H15.0603ZM14.8724 7.10779C14.6727 7.37738 14.4263 7.6575 14.0841 8.04174L18.5646 12.0324C18.8765 11.6821 19.306 11.2026 19.6933 10.6797L14.8724 7.10779ZM14.0827 8.04324C13.7047 8.4683 13.1197 9.11444 12.661 9.84595C12.1707 10.6278 11.7051 11.683 11.7051 12.9882H17.7051C17.7051 13.1633 17.6329 13.211 17.744 13.0338C17.8029 12.9399 17.894 12.8139 18.038 12.6386C18.1851 12.4596 18.3505 12.2731 18.5659 12.0309L14.0827 8.04324ZM11.7051 12.9882V14.723H17.7051V12.9882H11.7051ZM14.582 11.7255C11.2006 11.8644 7.94303 13.0129 5.3621 15.0992L9.134 19.7653C10.6317 18.5547 12.6259 17.8109 14.8282 17.7205L14.582 11.7255ZM7.6324 14.457C6.566 14.3192 5.47657 14.6184 4.60931 15.327L8.40543 19.9734C7.9869 20.3154 7.42298 20.4798 6.8637 20.4075L7.6324 14.457ZM4.60191 15.333L2.37663 17.1629L6.18755 21.7973L8.41283 19.9674L4.60191 15.333ZM2.37302 17.1659C1.53225 17.8595 1.0953 18.7755 0.923226 19.5993L6.79648 20.8261C6.74335 21.0804 6.58753 21.4673 6.19116 21.7943L2.37302 17.1659ZM1.95255 17.897L1.24972 18.4759L5.06432 23.1072L5.76715 22.5283L1.95255 17.897ZM1.25046 18.4753C-2.34313 21.4333 -3.54228 24.4759 -2.79205 27.2288L2.99684 25.6512C3.02 25.7362 2.95134 25.6661 3.09407 25.3411C3.26288 24.9566 3.7459 24.1924 5.06358 23.1078L1.25046 18.4753ZM-2.79228 27.228C-2.44976 28.4863 -1.63732 29.7912 -0.120389 30.718C1.31765 31.5966 3.16499 32 5.39419 32V26C3.82646 26 3.18686 25.7074 3.00771 25.5979C2.90744 25.5367 2.97245 25.5616 2.99707 25.6521L-2.79228 27.228ZM5.39419 32H24.5469V26H5.39419V32ZM24.5469 32C26.7869 32 28.6417 31.5828 30.0866 30.6881C31.6006 29.7507 32.411 28.4447 32.766 27.2027L26.9969 25.5539C26.9968 25.5543 27.0016 25.5401 27.0126 25.525C27.0263 25.5062 27.0149 25.533 26.928 25.5868C26.7385 25.7042 26.0969 26 24.5469 26V32ZM32.7664 27.2011C33.5409 24.4853 32.4735 21.3844 28.9294 18.2952L24.987 22.8181C26.2695 23.9361 26.7385 24.7254 26.9041 25.1353C26.984 25.3332 26.997 25.4504 26.9994 25.4958C27.0008 25.521 26.9995 25.5363 26.9986 25.5435C26.9978 25.5508 26.9968 25.5545 26.9965 25.5555L32.7664 27.2011ZM25.4577 24.9586C25.5996 24.4624 25.8613 24.1673 26.0022 24.038C26.1459 23.9063 26.2301 23.8826 26.1688 23.9082C26.0363 23.9635 25.5552 24.1109 24.5464 24.1109V30.1109C26.0591 30.1109 27.3884 29.9008 28.4796 29.4454C29.4735 29.0306 30.7777 28.1788 31.2268 26.6074L25.4577 24.9586ZM24.5464 24.1109H5.39365V30.1109H24.5464V24.1109ZM5.39365 24.1109C4.36805 24.1109 3.87791 23.9699 3.74195 23.916C3.67839 23.8907 3.77428 23.9169 3.93407 24.0584C4.09027 24.1968 4.39175 24.5243 4.54308 25.0826L-1.24798 26.6522C-0.802182 28.297 0.590116 29.1205 1.52973 29.4932C2.59912 29.9174 3.90418 30.1109 5.39365 30.1109V24.1109ZM4.54173 25.0777C4.6873 25.6112 4.59734 25.9968 4.56981 26.0981C4.53614 26.2221 4.51282 26.2263 4.58716 26.1069C4.73751 25.8656 5.13505 25.3624 5.99822 24.6523L2.18643 20.0187C0.995168 20.9987 0.0921977 21.9751 -0.505299 22.9341C-1.00713 23.7396 -1.66319 25.1306 -1.24664 26.6572L4.54173 25.0777ZM5.99845 24.6521L6.70507 24.0707L2.89282 19.4375L2.18621 20.0189L5.99845 24.6521ZM4.43643 24.7321C4.38006 24.7253 4.3383 24.7182 4.3313 24.717C4.32864 24.7166 4.32438 24.7159 4.33391 24.7175C4.33978 24.7185 4.35505 24.7211 4.37318 24.7241C4.43395 24.7339 4.64274 24.768 4.90707 24.768V18.768C5.02727 18.768 5.12663 18.7757 5.19619 18.7831C5.26416 18.7903 5.31528 18.7985 5.33283 18.8013C5.34198 18.8028 5.34826 18.8039 5.34514 18.8033C5.34448 18.8032 5.3439 18.8031 5.34247 18.8029C5.34127 18.8027 5.33949 18.8024 5.33752 18.802C5.33363 18.8014 5.3277 18.8004 5.32075 18.7992C5.29574 18.795 5.23594 18.7851 5.16146 18.7761L4.43643 24.7321ZM4.90707 24.768C5.83467 24.768 6.72049 24.4406 7.43063 23.8591L3.62916 19.217C3.96084 18.9454 4.40983 18.768 4.90707 18.768V24.768ZM7.43629 23.8544L9.66049 22.0239L5.84769 17.3911L3.62349 19.2217L7.43629 23.8544ZM9.65971 22.0245C10.4983 21.3349 10.9351 20.424 11.1091 19.6058L5.24032 18.3578C5.29429 18.104 5.45109 17.7173 5.84847 17.3905L9.65971 22.0245ZM10.0603 21.3152C11.3879 20.2424 13.2218 19.5888 15.2706 19.5888V13.5888C11.9725 13.5888 8.77632 14.6385 6.28909 16.6485L10.0603 21.3152ZM15.2706 19.5888C17.2707 19.5888 19.0655 20.202 20.4224 21.2324L24.0512 16.4541C21.5792 14.5769 18.4888 13.5888 15.2706 13.5888V19.5888ZM19.2552 19.1752C19.3643 20.1555 19.8208 21.2355 20.7688 22.0194L24.5925 17.3956C25.0301 17.7575 25.1838 18.2013 25.2184 18.5114L19.2552 19.1752ZM20.7742 22.0239L22.9984 23.8544L26.8112 19.2217L24.5871 17.3911L20.7742 22.0239ZM23.0106 23.8644C23.7147 24.4377 24.5954 24.768 25.5277 24.768V18.768C26.0296 18.768 26.4756 18.9483 26.7991 19.2117L23.0106 23.8644ZM25.5277 24.768C25.6867 24.768 25.819 24.7559 25.9111 24.7448C26.0005 24.734 26.0716 24.7216 26.097 24.7171C26.1076 24.7153 26.124 24.7123 26.1193 24.7132C26.1193 24.7132 26.1187 24.7133 26.1177 24.7135C26.1167 24.7136 26.1151 24.7139 26.1132 24.7142C26.1093 24.7149 26.1032 24.716 26.0955 24.7173C26.0679 24.7219 25.9986 24.733 25.9078 24.7416L25.3465 18.7679C25.2389 18.778 25.153 18.7916 25.1086 18.799C25.0859 18.8028 25.0673 18.8061 25.06 18.8074C25.0469 18.8098 25.0551 18.8083 25.0574 18.8079C25.0662 18.8063 25.1209 18.7966 25.1937 18.7878C25.2693 18.7787 25.3851 18.768 25.5277 18.768V24.768ZM23.6548 24.0152L24.0143 24.3289L27.959 19.8079L27.5995 19.4942L23.6548 24.0152ZM24.014 24.3287C24.8519 25.0599 25.2327 25.5815 25.3773 25.8364C25.4485 25.962 25.4321 25.9695 25.4076 25.8629C25.3874 25.7748 25.3222 25.4364 25.4562 24.9641L31.2283 26.6019C31.6439 25.1374 31.0958 23.757 30.5963 22.8763C30.0242 21.8677 29.1402 20.8388 27.9593 19.8082L24.014 24.3287Z" fill="black" mask="url(#path-1-inside-1_616_12)"/>
</svg>
