<svg width="29" height="31" viewBox="0 0 29 31" fill="none" xmlns="http://www.w3.org/2000/svg">
<path fill-rule="evenodd" clip-rule="evenodd" d="M6.54839 7.75956C6.54839 3.47407 10.1084 0 14.5 0C18.8916 0 22.4516 3.47407 22.4516 7.75956C22.4516 12.045 18.8916 15.5191 14.5 15.5191C10.1084 15.5191 6.54839 12.045 6.54839 7.75956ZM14.5 2.73867C11.6584 2.73867 9.35484 4.9866 9.35484 7.75956C9.35484 10.5325 11.6584 12.7805 14.5 12.7805C17.3416 12.7805 19.6452 10.5325 19.6452 7.75956C19.6452 4.9866 17.3416 2.73867 14.5 2.73867Z" fill="black"/>
<path fill-rule="evenodd" clip-rule="evenodd" d="M7.01613 20.9965C4.69119 20.9965 2.80645 22.8357 2.80645 25.1045V27.274C2.80645 27.307 2.83098 27.3352 2.86439 27.3405C10.5705 28.5683 18.4295 28.5683 26.1356 27.3405C26.169 27.3352 26.1935 27.307 26.1935 27.274V25.1045C26.1935 22.8357 24.3088 20.9965 21.9839 20.9965H21.3461C21.2968 20.9965 21.2478 21.0041 21.2009 21.019L19.5816 21.535C16.2796 22.5871 12.7204 22.5871 9.41842 21.535L7.79907 21.019C7.7522 21.0041 7.7032 20.9965 7.65388 20.9965H7.01613ZM0 25.1045C0 21.3232 3.14123 18.2578 7.01613 18.2578H7.65388C7.99906 18.2578 8.34207 18.3111 8.6702 18.4156L10.2895 18.9316C13.0254 19.8034 15.9746 19.8034 18.7104 18.9316L20.3298 18.4156C20.6579 18.3111 21.0009 18.2578 21.3461 18.2578H21.9839C25.8588 18.2578 29 21.3231 29 25.1045V27.274C29 28.6492 27.9787 29.8218 26.5878 30.0434C18.5823 31.3189 10.4177 31.3189 2.41219 30.0434C1.02133 29.8218 0 28.6492 0 27.274V25.1045Z" fill="black"/>
</svg>
