<svg width="29" height="32" viewBox="0 0 29 32" fill="none" xmlns="http://www.w3.org/2000/svg">
<path fill-rule="evenodd" clip-rule="evenodd" d="M5.81644 8.13532V7.93506C5.81644 4.31376 8.49941 1.15186 12.3374 0.250011C13.7561 -0.0833369 15.2439 -0.083337 16.6626 0.250011C20.5006 1.15186 23.1836 4.31376 23.1836 7.93507V8.13532H25.9278C26.9722 8.13532 27.8585 8.83525 28.0099 9.77951L28.4097 12.2727C29.1968 17.1815 29.1968 22.169 28.4097 27.0778C28.0296 29.4483 25.9377 31.281 23.3298 31.5281L22.1802 31.6371C17.0737 32.121 11.9263 32.121 6.81984 31.6371L5.67019 31.5281C3.06231 31.281 0.970411 29.4483 0.590313 27.0778C-0.196771 22.169 -0.196771 17.1815 0.590313 12.2727L0.990075 9.77951C1.14148 8.83525 2.02784 8.13532 3.0722 8.13532H5.81644ZM13.0204 2.67687C13.991 2.44879 15.009 2.44879 15.9797 2.67687C18.6057 3.29393 20.4414 5.45733 20.4414 7.93507V8.13532H8.55862V7.93506C8.55862 5.45733 10.3943 3.29393 13.0204 2.67687ZM5.81644 10.6411V14.3998C5.81644 15.0918 6.4303 15.6528 7.18753 15.6528C7.94476 15.6528 8.55862 15.0918 8.55862 14.3998V10.6411H20.4414V14.3998C20.4414 15.0918 21.0552 15.6528 21.8125 15.6528C22.5697 15.6528 23.1836 15.0918 23.1836 14.3998V10.6411H25.3766L25.6965 12.636C26.4449 17.3039 26.4449 22.0466 25.6965 26.7145C25.4982 27.9509 24.4072 28.9068 23.0469 29.0357L21.8973 29.1446C16.9789 29.6107 12.021 29.6107 7.1027 29.1446L5.95305 29.0357C4.59285 28.9068 3.50177 27.9509 3.30352 26.7145C2.55506 22.0466 2.55506 17.3039 3.30352 12.636L3.62338 10.6411H5.81644Z" fill="black"/>
</svg>
